<svg xmlns="http://www.w3.org/2000/svg" width="31.736" height="21.636" viewBox="0 0 31.736 21.636">
  <path id="Email" d="M30.018,21.636H1.717A1.706,1.706,0,0,1,0,19.867V1.906A1.721,1.721,0,0,1,1.717,0h28.3a1.721,1.721,0,0,1,1.717,1.906V19.867A1.725,1.725,0,0,1,30.018,21.636ZM3.3,2.789a.628.628,0,0,0-.687.68c0,.366.28.524.55.677l.09.051c.791.461,3.061,1.88,5.464,3.383,3.464,2.167,7.046,4.407,7.246,4.437a.44.44,0,0,0,.065,0,1.718,1.718,0,0,0,.8-.362l.059-.04c1.161-.734,2.344-1.492,3.489-2.225C22.8,7.839,25.313,6.229,27.79,4.734l.237-.141c.55-.323,1.235-.724,1.235-1.124a.628.628,0,0,0-.687-.68c-.223,0-6.992,4.32-9.882,6.165l-1.068.681c-.265.176-.529.338-.784.5s-.512.315-.767.484l-1.609-.992c-.125-.076-.623-.387-1.378-.857C10.219,6.976,3.506,2.789,3.3,2.789Z"/>
</svg>
