<svg id="Group_2" data-name="Group 2" xmlns="http://www.w3.org/2000/svg" width="30.04" height="30.04" viewBox="0 0 30.04 30.04">
  <path id="Instagram" d="M8.827,29.95a11.091,11.091,0,0,1-3.646-.7,7.349,7.349,0,0,1-2.66-1.732A7.353,7.353,0,0,1,.789,24.859a11.1,11.1,0,0,1-.7-3.646C.017,19.6,0,19.065,0,15.02s.017-4.58.09-6.193a11.1,11.1,0,0,1,.7-3.646,7.351,7.351,0,0,1,1.733-2.66A7.351,7.351,0,0,1,5.181.789,11.1,11.1,0,0,1,8.827.09C10.441.017,10.975,0,15.02,0S19.6.017,21.213.09a11.1,11.1,0,0,1,3.646.7A7.353,7.353,0,0,1,27.52,2.521a7.349,7.349,0,0,1,1.732,2.66,11.091,11.091,0,0,1,.7,3.646c.073,1.6.09,2.133.09,6.193s-.017,4.592-.09,6.192a11.082,11.082,0,0,1-.7,3.646,7.674,7.674,0,0,1-4.393,4.393,11.082,11.082,0,0,1-3.646.7c-1.6.073-2.133.09-6.192.09S10.428,30.023,8.827,29.95ZM8.951,2.794a8.323,8.323,0,0,0-2.789.517A4.655,4.655,0,0,0,4.435,4.435,4.655,4.655,0,0,0,3.311,6.162a8.323,8.323,0,0,0-.517,2.789c-.072,1.582-.087,2.056-.087,6.07s.015,4.488.087,6.069a8.323,8.323,0,0,0,.517,2.789,4.655,4.655,0,0,0,1.124,1.727A4.655,4.655,0,0,0,6.162,26.73a8.323,8.323,0,0,0,2.789.517c1.591.073,2.067.088,6.07.088s4.48-.015,6.069-.088a8.323,8.323,0,0,0,2.789-.517,4.976,4.976,0,0,0,2.851-2.851,8.323,8.323,0,0,0,.517-2.789c.073-1.59.088-2.066.088-6.069s-.015-4.479-.088-6.07a8.323,8.323,0,0,0-.517-2.789,4.655,4.655,0,0,0-1.124-1.727,4.655,4.655,0,0,0-1.727-1.124,8.323,8.323,0,0,0-2.789-.517c-1.582-.072-2.056-.087-6.069-.087S10.532,2.722,8.951,2.794Zm.616,17.681a7.714,7.714,0,1,1,5.454,2.259A7.662,7.662,0,0,1,9.566,20.475Zm.447-5.454a5.007,5.007,0,1,0,5.007-5.007A5.013,5.013,0,0,0,10.014,15.02ZM21.236,7a1.8,1.8,0,1,1,1.8,1.8A1.8,1.8,0,0,1,21.236,7Z" transform="translate(0)"/>
</svg>
