<svg xmlns="http://www.w3.org/2000/svg" width="22.997" height="29.761" viewBox="0 0 22.997 29.761">
  <path id="Pinterest" d="M13.791,21.509a4.893,4.893,0,0,1-4.169-2.131s-.991,3.938-1.2,4.7A18.181,18.181,0,0,1,5.342,29.67a.226.226,0,0,1-.4-.1,19.212,19.212,0,0,1,.05-6.5c.327-1.388,2.2-9.315,2.2-9.315a6.577,6.577,0,0,1-.545-2.7c0-2.533,1.466-4.424,3.292-4.424A2.288,2.288,0,0,1,12.23,9.2c0,1.564-.994,3.9-1.507,6.067a2.645,2.645,0,0,0,2.693,3.292c3.233,0,5.41-4.16,5.41-9.089,0-3.745-2.517-6.55-7.1-6.55a8.089,8.089,0,0,0-8.4,8.187,4.934,4.934,0,0,0,1.127,3.352.829.829,0,0,1,.246.952c-.083.315-.27,1.072-.348,1.373a.588.588,0,0,1-.855.427C1.113,16.236,0,13.619,0,10.679,0,5.823,4.089,0,12.2,0,18.71,0,23,4.722,23,9.793c0,6.707-3.721,11.717-9.206,11.717"/>
</svg>
