<svg xmlns="http://www.w3.org/2000/svg" width="31.372" height="21.373" viewBox="0 0 31.372 21.373">
  <path id="Email" d="M29.657,21.373H1.7A1.685,1.685,0,0,1,0,19.625V1.888A1.7,1.7,0,0,1,1.7,0H29.657a1.7,1.7,0,0,1,1.7,1.888V19.625a1.7,1.7,0,0,1-1.7,1.748ZM3.259,2.754a.62.62,0,0,0-.674.674c0,.362.27.518.54.674l.089.051c.781.456,3.024,1.857,5.4,3.343,3.422,2.141,6.96,4.353,7.157,4.384a.434.434,0,0,0,.065,0,1.7,1.7,0,0,0,.79-.357l.058-.039c1.147-.726,2.316-1.474,3.446-2.2,2.4-1.538,4.88-3.127,7.327-4.6l.235-.135c.54-.318,1.214-.715,1.214-1.11a.62.62,0,0,0-.674-.674c-.221,0-6.908,4.268-9.762,6.09l-1.055.674c-.262.174-.522.335-.776.49s-.506.312-.758.479l-1.59-.981c-.123-.076-.616-.382-1.361-.847C10.1,6.891,3.465,2.754,3.259,2.754Z" transform="translate(0.008)" fill="#ebbbbb"/>
</svg>
