<svg xmlns="http://www.w3.org/2000/svg" width="34.117" height="26.649" viewBox="0 0 34.117 26.649">
  <path id="Icon_awesome-shopping-basket" data-name="Icon awesome-shopping-basket" d="M34.117,13.148V14.1A1.422,1.422,0,0,1,32.7,15.518h-.474L30.675,26.344a2.843,2.843,0,0,1-2.814,2.441H6.257a2.843,2.843,0,0,1-2.815-2.442L1.9,15.518H1.422A1.422,1.422,0,0,1,0,14.1v-.948A1.422,1.422,0,0,1,1.422,11.73H5.41l6.325-8.7A1.9,1.9,0,1,1,14.8,5.26l-4.7,6.467H24.019l-4.7-6.467a1.9,1.9,0,0,1,3.066-2.23l6.325,8.7H32.7a1.422,1.422,0,0,1,1.417,1.418ZM18.48,23.573V16.939a1.422,1.422,0,0,0-2.843,0v6.634a1.422,1.422,0,1,0,2.843,0Zm6.634,0V16.939a1.422,1.422,0,0,0-2.843,0v6.634a1.422,1.422,0,1,0,2.843,0Zm-13.268,0V16.939a1.422,1.422,0,0,0-2.843,0v6.634a1.422,1.422,0,1,0,2.843,0Z" transform="translate(0 -2.136)" fill="#9cb18c"/>
</svg>
