<svg id="Group_2" data-name="Group 2" xmlns="http://www.w3.org/2000/svg" width="29.676" height="29.676" viewBox="0 0 29.676 29.676">
  <path id="Instagram" d="M8.721,29.587a10.957,10.957,0,0,1-3.6-.691,7.26,7.26,0,0,1-2.628-1.71A7.264,7.264,0,0,1,.78,24.557a10.965,10.965,0,0,1-.691-3.6C.018,19.362,0,18.833,0,14.838s.018-4.524.089-6.117a10.965,10.965,0,0,1,.691-3.6A7.261,7.261,0,0,1,2.49,2.49,7.261,7.261,0,0,1,5.119.78a10.965,10.965,0,0,1,3.6-.691C10.314.018,10.842,0,14.838,0s4.524.018,6.117.089a10.965,10.965,0,0,1,3.6.691,7.264,7.264,0,0,1,2.629,1.712A7.26,7.26,0,0,1,28.9,5.119a10.957,10.957,0,0,1,.691,3.6c.071,1.581.089,2.107.089,6.117s-.018,4.536-.089,6.117a10.948,10.948,0,0,1-.691,3.6A7.581,7.581,0,0,1,24.557,28.9a10.948,10.948,0,0,1-3.6.691c-1.581.071-2.107.089-6.117.089S10.3,29.658,8.721,29.587ZM8.842,2.76a8.228,8.228,0,0,0-2.756.511A4.6,4.6,0,0,0,4.38,4.381,4.6,4.6,0,0,0,3.27,6.088a8.228,8.228,0,0,0-.511,2.756c-.07,1.561-.085,2.03-.085,5.994s.015,4.432.086,6a8.228,8.228,0,0,0,.511,2.756A4.6,4.6,0,0,0,4.381,25.3a4.6,4.6,0,0,0,1.706,1.11,8.228,8.228,0,0,0,2.756.511c1.571.071,2.041.086,6,.086s4.426-.015,6-.086a8.228,8.228,0,0,0,2.756-.511,4.915,4.915,0,0,0,2.817-2.816,8.228,8.228,0,0,0,.511-2.756c.071-1.57.086-2.041.086-6s-.015-4.424-.086-6a8.228,8.228,0,0,0-.511-2.756A4.6,4.6,0,0,0,25.3,4.38a4.6,4.6,0,0,0-1.706-1.11,8.228,8.228,0,0,0-2.756-.511c-1.562-.071-2.031-.086-6-.086s-4.435.016-6,.088ZM9.45,20.225a7.621,7.621,0,1,1,5.388,2.232A7.621,7.621,0,0,1,9.45,20.225Zm.441-5.387a4.946,4.946,0,1,0,4.946-4.946,4.946,4.946,0,0,0-4.946,4.946ZM20.977,6.917A1.781,1.781,0,1,1,22.757,8.7a1.781,1.781,0,0,1-1.781-1.781Z" transform="translate(0)" fill="#ebbbbb"/>
</svg>
