<svg xmlns="http://www.w3.org/2000/svg" width="22.718" height="29.412" viewBox="0 0 22.718 29.412">
  <path id="Pinterest" d="M13.624,21.248a4.833,4.833,0,0,1-4.118-2.106s-.979,3.89-1.186,4.642a17.96,17.96,0,0,1-3.043,5.53.223.223,0,0,1-.4-.094A18.979,18.979,0,0,1,4.928,22.8l2.168-9.2a6.5,6.5,0,0,1-.54-2.672c0-2.5,1.449-4.37,3.252-4.37a2.261,2.261,0,0,1,2.274,2.536c0,1.544-.982,3.852-1.484,5.993a2.613,2.613,0,0,0,2.655,3.251c3.193,0,5.344-4.11,5.344-8.978,0-3.7-2.486-6.475-7.014-6.475a7.991,7.991,0,0,0-8.3,8.093A4.874,4.874,0,0,0,4.4,14.283a.819.819,0,0,1,.243.944c-.082.312-.27,1.059-.344,1.356a.58.58,0,0,1-.844.422C1.1,16.038,0,13.454,0,10.55,0,5.753,4.04,0,12.047,0c6.436,0,10.671,4.664,10.671,9.674,0,6.626-3.676,11.575-9.094,11.575" fill="#ebbbbb"/>
</svg>
